# xmcd CD database file
#
# Track frame offsets:
#	150
#	24311
#	50329
#	80962
#	112163
#	117652
#	141790
#	168941
#	189864
#	219183
#	244611
#	274769
#
# Disc length: 3999 seconds
#
# Revision: 0
# Processed by: cddbd v1.5.1PL0 Copyright (c) Steve Scherf et al.
# Submitted via: CDex 1.51
#
DISCID=a60f9d0c
DTITLE=Geri Allen - The Gathering
DYEAR=1998
DGENRE=Jazz
TTITLE0=The Gathering
TTITLE1=Dark Prince
TTITLE2=Sleepin' Pretty
TTITLE3=Light Matter
TTITLE4=Baby's Breath
TTITLE5=Ray
TTITLE6=Soul Heir
TTITLE7=Joy and Wonder
TTITLE8=Gabriel's Royal Blue Reals
TTITLE9=Daybreak And Dreams
TTITLE10=Angels
TTITLE11=Light Matter (alternate take)
EXTD=YEAR: 1998
EXTT0=
EXTT1=
EXTT2=
EXTT3=
EXTT4=
EXTT5=
EXTT6=
EXTT7=
EXTT8=
EXTT9=
EXTT10=
EXTT11=
PLAYORDER=
